# xmcd CD database file
#
# Track frame offsets:
#	150
#	10348
#	22663
#	60120
#	70908
#	85155
#	99663
#	109382
#	130322
#	138240
#	159843
#	171878
#	183398
#	205703
#	214915
#	236628
#	249360
#	272440
#	286375
#
# Disc length: 4063 seconds
#
# Revision: 0
# Processed by: cddbd v1.4PL0 Copyright (c) Steve Scherf et al.
# Submitted via: CDex 1.51
#
DISCID=fd0fdd13
DTITLE=The Paragon Ragtime Orchestra - Black Manhattan
DYEAR=2003
DGENRE=Jazz
TTITLE0=The Castle Perfect Trot
TTITLE1=Carolina Fox Trot
TTITLE2=Overture to "In Dahomey"
TTITLE3=Deep River: Old Negro Melody
TTITLE4=Sambo: A Characteristic Two Step March
TTITLE5=When the Band Plays Ragtime
TTITLE6=Castle House Rag
TTITLE7=Smyrna: A Turkish Serenade
TTITLE8=Ballin' the Jack/What It Takes to Make Me Love You - You've Got It
TTITLE9=Meno D'Amour
TTITLE10=Hey There! (Hi There!)
TTITLE11=The Tar Heel Blues Rag
TTITLE12=Congratulations
TTITLE13=Strut Miss Lizzie
TTITLE14=Panama: A Characteristic Novelty
TTITLE15=The Clef Club March
TTITLE16=Under the Bamboo Tree
TTITLE17=Cocoanut Grove Jazz
TTITLE18=Swing Along!
EXTD=YEAR: 2003
EXTT0=
EXTT1=
EXTT2=
EXTT3=
EXTT4=
EXTT5=
EXTT6=
EXTT7=
EXTT8=
EXTT9=
EXTT10=
EXTT11=
EXTT12=
EXTT13=
EXTT14=
EXTT15=
EXTT16=
EXTT17=
EXTT18=
PLAYORDER=
